<svg width="20" height="22" viewBox="0 0 20 22" fill="none" xmlns="http://www.w3.org/2000/svg">
<g clip-path="url(#clip0_549_213)">
<path d="M18.7105 5.06091C18.4456 5.06091 18.1916 5.16618 18.0042 5.35363C17.8169 5.54109 17.7115 5.79538 17.7115 6.06049V11.2423C17.7108 11.5542 17.5865 11.8532 17.366 12.0737C17.1454 12.2942 16.8465 12.4182 16.5348 12.4188H6.57397C6.2622 12.4182 5.96333 12.2942 5.74278 12.0737C5.52223 11.8532 5.39786 11.5542 5.39707 11.2423V3.04577C5.39715 2.8604 5.34574 2.67865 5.24854 2.52085C5.15133 2.36304 5.01226 2.23534 4.84672 2.1521L1.52309 0.490819C1.28616 0.373221 1.01228 0.354462 0.761532 0.438595C0.510782 0.522728 0.303635 0.702861 0.185459 0.939604C0.126203 1.05674 0.0908242 1.18458 0.0815611 1.31554C0.072298 1.44651 0.0892598 1.57802 0.131437 1.70234C0.21469 1.95388 0.394349 2.16203 0.630928 2.28108L3.39813 3.66453V11.2384C3.39892 12.0804 3.73355 12.8876 4.32858 13.483C4.9236 14.0784 5.7304 14.4132 6.5719 14.414H16.5328C17.3744 14.4132 18.1813 14.0784 18.7765 13.483C19.3717 12.8877 19.7065 12.0804 19.7076 11.2384V6.06049C19.7076 5.79573 19.6025 5.54177 19.4156 5.35437C19.2287 5.16697 18.9751 5.06144 18.7105 5.06091Z" fill="white"/>
<path d="M7.77709 15.8008C7.20267 15.8008 6.64115 15.9712 6.16362 16.2907C5.68609 16.6101 5.31394 17.0642 5.0944 17.5953C4.87485 18.1264 4.81776 18.7108 4.93026 19.2744C5.04276 19.838 5.31985 20.3557 5.72644 20.7617C6.13304 21.1677 6.6509 21.4438 7.21443 21.5552C7.77796 21.6666 8.36181 21.6082 8.89216 21.3874C9.42252 21.1666 9.87555 20.7935 10.1938 20.315C10.5121 19.8365 10.6813 19.2743 10.6801 18.6996C10.678 17.9304 10.3713 17.1934 9.82712 16.65C9.28298 16.1067 8.54582 15.8013 7.77709 15.8008ZM7.77709 19.6102C7.59812 19.6102 7.42312 19.557 7.2743 19.4576C7.12549 19.3581 7.00956 19.2168 6.94103 19.0514C6.87249 18.8859 6.85448 18.7039 6.88932 18.5283C6.92416 18.3526 7.01027 18.1912 7.13675 18.0645C7.26323 17.9378 7.4244 17.8515 7.5999 17.8164C7.7754 17.7814 7.95741 17.7991 8.12281 17.8675C8.2882 17.9359 8.42956 18.0519 8.52913 18.2006C8.6287 18.3494 8.68197 18.5244 8.68217 18.7035C8.68217 18.9438 8.58689 19.1742 8.41718 19.3442C8.24748 19.5142 8.01722 19.6099 7.77709 19.6102Z" fill="white"/>
<path d="M16.5935 15.8008C16.019 15.8008 15.4575 15.9712 14.98 16.2907C14.5025 16.6101 14.1304 17.0642 13.9109 17.5953C13.6913 18.1264 13.6341 18.7108 13.7466 19.2744C13.8591 19.838 14.1362 20.3557 14.5428 20.7617C14.9494 21.1677 15.4673 21.4438 16.0308 21.5552C16.5943 21.6666 17.1783 21.6082 17.7087 21.3874C18.239 21.1666 18.6919 20.7935 19.0102 20.315C19.3285 19.8365 19.4977 19.2743 19.4965 18.6996C19.4944 17.9304 19.1878 17.1934 18.6436 16.65C18.0995 16.1067 17.3622 15.8013 16.5935 15.8008ZM16.5935 19.6102C16.4145 19.6102 16.2396 19.557 16.0908 19.4576C15.942 19.3581 15.8259 19.2168 15.7574 19.0514C15.6889 18.8859 15.6709 18.7039 15.7057 18.5283C15.7405 18.3526 15.8266 18.1912 15.9531 18.0645C16.0796 17.9378 16.2408 17.8515 16.4163 17.8164C16.5918 17.7814 16.7738 17.7991 16.9392 17.8675C17.1046 17.9359 17.2459 18.0519 17.3455 18.2006C17.4451 18.3494 17.4983 18.5244 17.4985 18.7035C17.4985 18.9438 17.4033 19.1742 17.2336 19.3442C17.0639 19.5142 16.8336 19.6099 16.5935 19.6102Z" fill="white"/>
</g>
<defs>
<clipPath id="clip0_549_213">
<rect width="19.63" height="21.22" fill="white" transform="translate(0.0791016 0.390625)"/>
</clipPath>
</defs>
</svg>
