<svg width="92" height="36" viewBox="0 0 92 36" fill="none" xmlns="http://www.w3.org/2000/svg">
<g clip-path="url(#clip0_233_216)">
<path d="M53.4729 12.8828H49.3267C48.9509 9.43824 47.317 6.25383 44.7385 3.94045C42.16 1.62707 38.8184 0.347656 35.3548 0.347656C31.8913 0.347656 28.5497 1.62707 25.9712 3.94045C23.3927 6.25383 21.7588 9.43824 21.383 12.8828H17.2348C16.9591 12.8828 16.6862 12.9371 16.4316 13.0427C16.1769 13.1482 15.9454 13.3029 15.7505 13.4979C15.5556 13.6929 15.401 13.9243 15.2955 14.1791C15.19 14.4339 15.1357 14.707 15.1357 14.9827V23.6745C15.1357 23.9503 15.19 24.2233 15.2955 24.4781C15.401 24.7329 15.5556 24.9644 15.7505 25.1594C15.9454 25.3544 16.1769 25.509 16.4316 25.6146C16.6862 25.7201 16.9591 25.7744 17.2348 25.7744H21.433C21.6582 27.2082 22.1548 28.5858 22.8963 29.8333C23.6447 31.0446 24.6918 32.0432 25.937 32.7332C28.0305 33.7548 30.336 34.2665 32.665 34.2262C32.8062 34.6397 33.0729 34.9989 33.4279 35.2536C33.7828 35.5083 34.2083 35.6458 34.6452 35.6471H37.7308C38.2852 35.6453 38.8164 35.424 39.2084 35.0317C39.6004 34.6394 39.8213 34.1079 39.8229 33.5532V32.9072C39.8213 32.3525 39.6004 31.821 39.2084 31.4287C38.8164 31.0364 38.2852 30.8151 37.7308 30.8133H34.6452C34.2126 30.8161 33.7914 30.952 33.4386 31.2024C33.0858 31.4529 32.8186 31.8058 32.673 32.2133C30.6843 32.2542 28.7134 31.83 26.9175 30.9743C24.8614 29.8273 23.6809 27.7744 23.3081 24.7225V14.4137C23.3081 11.218 24.5772 8.15309 26.836 5.89334C29.0948 3.63359 32.1584 2.36408 35.3529 2.36408C38.5473 2.36408 41.6109 3.63359 43.8697 5.89334C46.1286 8.15309 47.3975 11.218 47.3975 14.4137V24.7694C47.3978 25.0363 47.5038 25.2921 47.6923 25.4809C47.8808 25.6696 48.1364 25.7759 48.4031 25.7764H53.4729C54.0296 25.7764 54.5635 25.5552 54.9571 25.1613C55.3508 24.7675 55.5719 24.2334 55.5719 23.6765V14.9848C55.5722 14.7088 55.5181 14.4355 55.4128 14.1805C55.3074 13.9255 55.1528 13.6937 54.9578 13.4985C54.7629 13.3033 54.5314 13.1485 54.2766 13.0429C54.0218 12.9372 53.7487 12.8828 53.4729 12.8828ZM53.5598 14.9827V23.6745C53.5582 23.697 53.5485 23.7182 53.5325 23.7342C53.5166 23.7502 53.4954 23.7599 53.4729 23.7615H49.4106V14.8997H53.4729C53.4943 14.902 53.5142 14.9116 53.5294 14.9269C53.5445 14.9422 53.5539 14.9623 53.5558 14.9837L53.5598 14.9827ZM21.298 14.8957V23.7615H17.2348C17.2123 23.7599 17.1911 23.7502 17.1751 23.7342C17.1592 23.7182 17.1495 23.697 17.1479 23.6745V14.9827C17.1493 14.9601 17.1589 14.9388 17.1749 14.9228C17.1909 14.9068 17.2122 14.8971 17.2348 14.8957H21.298ZM34.5682 33.5562V32.9102C34.5695 32.8893 34.5784 32.8697 34.5931 32.8549C34.6077 32.84 34.6273 32.8309 34.6481 32.8292H37.7338C37.7544 32.8311 37.7738 32.8403 37.7882 32.8552C37.8027 32.87 37.8114 32.8895 37.8128 32.9102V33.5562C37.8114 33.5769 37.8027 33.5964 37.7882 33.6113C37.7738 33.6261 37.7544 33.6353 37.7338 33.6372H34.6481C34.6268 33.6365 34.6064 33.628 34.5909 33.6133C34.5754 33.5985 34.5659 33.5786 34.5642 33.5572L34.5682 33.5562Z" fill="white"/>
</g>
<defs>
<clipPath id="clip0_233_216">
<rect width="40.44" height="35.3" fill="white" transform="translate(15.1299 0.347656)"/>
</clipPath>
</defs>
</svg>
