<svg width="19" height="17" viewBox="0 0 19 17" fill="none" xmlns="http://www.w3.org/2000/svg">
<g clip-path="url(#clip0_549_225)">
<path d="M1.01004 2.04254H17.9898C18.2547 2.04254 18.5087 1.93731 18.696 1.74999C18.8834 1.56268 18.9886 1.30863 18.9886 1.04373C18.9886 0.77883 18.8834 0.524779 18.696 0.337466C18.5087 0.150153 18.2547 0.0449219 17.9898 0.0449219L1.01004 0.0449219C0.745138 0.0449219 0.491088 0.150153 0.303775 0.337466C0.116462 0.524779 0.0112305 0.77883 0.0112305 1.04373C0.0112305 1.30863 0.116462 1.56268 0.303775 1.74999C0.491088 1.93731 0.745138 2.04254 1.01004 2.04254Z" fill="white"/>
<path d="M17.9898 7.04297H1.01004C0.745138 7.04297 0.491088 7.1482 0.303775 7.33551C0.116462 7.52283 0.0112305 7.77688 0.0112305 8.04178C0.0112305 8.30668 0.116462 8.56073 0.303775 8.74804C0.491088 8.93535 0.745138 9.04059 1.01004 9.04059H17.9898C18.2547 9.04059 18.5087 8.93535 18.696 8.74804C18.8834 8.56073 18.9886 8.30668 18.9886 8.04178C18.9886 7.77688 18.8834 7.52283 18.696 7.33551C18.5087 7.1482 18.2547 7.04297 17.9898 7.04297Z" fill="white"/>
<path d="M17.9898 14.041H1.01004C0.745138 14.041 0.491088 14.1462 0.303775 14.3336C0.116462 14.5209 0.0112305 14.7749 0.0112305 15.0398C0.0112305 15.3047 0.116462 15.5588 0.303775 15.7461C0.491088 15.9334 0.745138 16.0386 1.01004 16.0386H17.9898C18.2547 16.0386 18.5087 15.9334 18.696 15.7461C18.8834 15.5588 18.9886 15.3047 18.9886 15.0398C18.9886 14.7749 18.8834 14.5209 18.696 14.3336C18.5087 14.1462 18.2547 14.041 17.9898 14.041Z" fill="white"/>
</g>
<defs>
<clipPath id="clip0_549_225">
<rect width="19" height="16.09" fill="white" transform="translate(0 0.0449219)"/>
</clipPath>
</defs>
</svg>
