<svg width="15" height="16" viewBox="0 0 15 16" fill="none" xmlns="http://www.w3.org/2000/svg">
<path d="M14.0497 2.37154C14.5661 2.37154 14.9854 2.79084 14.9854 3.30721V5.21774V7.0499V12.6639C14.9854 13.1803 14.5661 13.5996 14.0497 13.5996H0.950321C0.433947 13.5996 0.0146484 13.1803 0.0146484 12.6639V7.0499V5.21774V3.30721C0.0146484 2.79084 0.433947 2.37154 0.950321 2.37154H14.0497ZM14.0497 12.6639V7.0499H0.950321V12.6639H14.0497ZM0.950321 5.21774H14.0497V3.30721H0.950321V5.21774ZM2.35383 11.7283C2.09564 11.7283 1.88599 11.5186 1.88599 11.2604C1.88599 11.0022 2.09564 10.7926 2.35383 10.7926H7.03219C7.29038 10.7926 7.50003 11.0022 7.50003 11.2604C7.50003 11.5186 7.29038 11.7283 7.03219 11.7283H2.35383ZM8.4357 11.2604C8.4357 11.0022 8.64535 10.7926 8.90354 10.7926C9.16172 10.7926 9.37137 11.0022 9.37137 11.2604C9.37137 11.5186 9.16172 11.7283 8.90354 11.7283C8.64535 11.7283 8.4357 11.5186 8.4357 11.2604ZM10.307 11.2604C10.307 11.0022 10.5167 10.7926 10.7749 10.7926C11.0331 10.7926 11.2427 11.0022 11.2427 11.2604C11.2427 11.5186 11.0331 11.7283 10.7749 11.7283C10.5167 11.7283 10.307 11.5186 10.307 11.2604ZM12.1784 11.2604C12.1784 11.0022 12.388 10.7926 12.6462 10.7926C12.9044 10.7926 13.1141 11.0022 13.1141 11.2604C13.1141 11.5186 12.9044 11.7283 12.6462 11.7283C12.388 11.7283 12.1784 11.5186 12.1784 11.2604Z" fill="#6D758D"/>
</svg>
