<svg width="19" height="19" viewBox="0 0 19 19" fill="none" xmlns="http://www.w3.org/2000/svg">
<g clip-path="url(#clip0_233_200)">
<path d="M18.7043 16.6052L15.8774 13.7818C15.8524 13.7579 15.8194 13.748 15.7934 13.726C17.1291 12.0243 17.7628 9.87687 17.5648 7.72364C17.3668 5.57042 16.3521 3.57421 14.7284 2.14392C13.1047 0.713621 10.995 -0.0425553 8.8312 0.0301921C6.66741 0.10294 4.6133 0.999131 3.08959 2.53524C1.56588 4.07136 0.687879 6.13113 0.635316 8.29278C0.582753 10.4544 1.35961 12.5544 2.80686 14.1626C4.25411 15.7707 6.26216 16.7655 8.41986 16.943C10.5776 17.1206 12.7217 16.4675 14.413 15.1177C14.4284 15.1439 14.4455 15.1693 14.464 15.1936L17.2909 18.0189C17.4786 18.2061 17.733 18.3112 17.9983 18.311C18.2635 18.3108 18.5178 18.2054 18.7053 18.0179C18.8927 17.8305 18.998 17.5763 18.9978 17.3113C18.9976 17.0464 18.892 16.7924 18.7043 16.6052ZM9.11893 14.9749C7.83384 14.9749 6.57761 14.5943 5.50909 13.8813C4.44057 13.1682 3.60773 12.1547 3.11595 10.9689C2.62416 9.78316 2.4955 8.4784 2.74621 7.21958C2.99692 5.96077 3.61578 4.80446 4.52447 3.8969C5.43317 2.98935 6.59094 2.37128 7.85135 2.12088C9.11175 1.87049 10.4182 1.99899 11.6054 2.49015C12.7927 2.98132 13.8075 3.81311 14.5214 4.88028C15.2354 5.94745 15.6165 7.2021 15.6165 8.48558C15.6144 10.206 14.9291 11.8554 13.7111 13.0719C12.493 14.2885 10.8415 14.9728 9.11893 14.9749Z" fill="white"/>
</g>
<defs>
<clipPath id="clip0_233_200">
<rect width="18.38" height="18.31" fill="white" transform="translate(0.620117)"/>
</clipPath>
</defs>
</svg>
