<svg width="17" height="20" viewBox="0 0 17 20" fill="none" xmlns="http://www.w3.org/2000/svg">
<g clip-path="url(#clip0_549_204)">
<path d="M16.6312 18.6022C16.4948 17.0147 15.7944 15.5287 14.6568 14.4135C13.5192 13.2984 12.0198 12.628 10.4305 12.524C9.01347 12.455 7.58646 12.456 6.16939 12.524C4.61714 12.6363 3.15373 13.2908 2.03479 14.3729C0.915855 15.4551 0.212524 16.8962 0.0477677 18.4444C-0.059086 19.7491 0.147655 19.9829 1.44588 19.9849C3.73275 19.9889 6.02023 19.9889 8.30844 19.9849C10.6652 19.9849 13.022 19.9909 15.3798 19.9849C16.4633 19.9799 16.721 19.6882 16.6312 18.6022ZM1.83134 18.2785C1.99457 17.1665 2.54301 16.1472 3.38097 15.3986C4.21894 14.6499 5.29325 14.2195 6.41613 14.1824C7.69538 14.1265 8.98159 14.1275 10.2608 14.1824C11.3788 14.2143 12.4486 14.6444 13.2776 15.3954C14.1066 16.1464 14.6403 17.1688 14.7826 18.2785H1.83134Z" fill="white"/>
<path d="M8.30579 11.6685C9.45828 11.6751 10.5868 11.3394 11.5485 10.704C12.5103 10.0687 13.262 9.16221 13.7086 8.09931C14.1552 7.03641 14.2766 5.86495 14.0574 4.733C13.8383 3.60106 13.2883 2.55956 12.4773 1.74037C11.6663 0.921177 10.6306 0.361062 9.5013 0.130935C8.37199 -0.0991923 7.1998 0.0109729 6.13311 0.447528C5.06641 0.884084 4.15318 1.62745 3.50889 2.58344C2.86461 3.53943 2.51823 4.66506 2.51367 5.81803C2.51516 7.35954 3.12418 8.83839 4.2085 9.93363C5.29281 11.0289 6.76501 11.6522 8.30579 11.6685ZM8.42855 1.67805C9.53114 1.70454 10.5781 2.16815 11.339 2.96686C12.0999 3.76557 12.5126 4.83389 12.4861 5.93694C12.4596 7.03998 11.9962 8.08736 11.1978 8.8486C10.3995 9.60983 9.33146 10.0226 8.22887 9.99607C7.68293 9.98295 7.14496 9.86243 6.64559 9.6413C6.14622 9.42017 5.6952 9.10273 5.31843 8.70725C4.55751 7.90854 4.14495 6.84022 4.17144 5.73718C4.19792 4.63413 4.66134 3.58675 5.45971 2.82552C6.25809 2.06428 7.32596 1.65155 8.42855 1.67805Z" fill="white"/>
</g>
<defs>
<clipPath id="clip0_549_204">
<rect width="16.63" height="19.98" fill="white" transform="translate(0.0195312 0.00976562)"/>
</clipPath>
</defs>
</svg>
