<svg width="21" height="18" viewBox="0 0 21 18" fill="none" xmlns="http://www.w3.org/2000/svg">
<path d="M18.5738 2.07146C18.0731 1.44048 17.4391 0.927983 16.7172 0.570559C15.9953 0.213135 15.2034 0.0196255 14.3981 0.00390625C13.627 0.00516496 12.8655 0.174725 12.1667 0.50075C11.468 0.826775 10.8488 1.30147 10.3524 1.89157C9.84604 1.31295 9.22461 0.846138 8.52784 0.521131C7.83107 0.196124 7.07429 0.0199929 6.30563 0.00390625C5.50002 0.0194611 4.70774 0.212944 3.98567 0.570559C3.26359 0.928174 2.62949 1.44104 2.12882 2.07244C1.52396 2.80934 1.08729 3.66949 0.849184 4.59266C0.611077 5.51583 0.577369 6.47982 0.750338 7.41738C1.76902 12.7812 9.49556 17.6452 9.82346 17.8491C9.9819 17.9477 10.1648 17.9999 10.3514 17.9999C10.5379 17.9999 10.7207 17.9477 10.8792 17.8491C11.2071 17.6492 18.9337 12.7812 19.9534 7.41738C20.1259 6.47958 20.0918 5.51545 19.8536 4.59217C19.6153 3.66889 19.1786 2.80864 18.5738 2.07146ZM17.989 7.04441C17.2703 10.8276 12.0459 14.6508 10.3514 15.8026C8.6519 14.6508 3.4325 10.8276 2.71372 7.04441C2.59431 6.39547 2.6179 5.72828 2.78279 5.08938C2.94768 4.45049 3.24985 3.85532 3.66838 3.34524C3.98199 2.94097 4.38098 2.61092 4.83684 2.37865C5.29271 2.14637 5.79426 2.0176 6.30563 2.00153C6.96606 2.03184 7.60599 2.24007 8.15784 2.60419C8.70969 2.96831 9.15293 3.47476 9.44065 4.07006C9.51994 4.24393 9.64732 4.39137 9.80784 4.49502C9.96836 4.59868 10.1553 4.65417 10.3464 4.6549H10.3524C10.543 4.6548 10.7297 4.60021 10.8904 4.49746C11.0511 4.39472 11.179 4.24815 11.2591 4.07507C11.547 3.47872 11.9907 2.97125 12.5432 2.60626C13.0957 2.24127 13.7366 2.03235 14.3981 2.00153C14.9092 2.0177 15.4104 2.14644 15.866 2.37853C16.3217 2.61062 16.7206 2.94035 17.0342 3.34427C17.4518 3.85483 17.753 4.45016 17.917 5.08901C18.081 5.72787 18.104 6.39486 17.984 7.04344L17.989 7.04441Z" fill="white"/>
</svg>
